<mxfile host="app.diagrams.net" modified="2022-07-28T13:31:35.792Z" agent="5.0 (Macintosh; Intel Mac OS X 10_15_7) AppleWebKit/537.36 (KHTML, like Gecko) Chrome/103.0.5060.134 Safari/537.36" etag="77gzMJbcfEzm51YxQp4e" version="20.2.2" type="github">
  <diagram id="3228e29e-7158-1315-38df-8450db1d8a1d" name="Page-1">
    <mxGraphModel dx="-354" dy="1029" grid="0" gridSize="10" guides="1" tooltips="1" connect="1" arrows="1" fold="1" page="1" pageScale="1" pageWidth="800" pageHeight="330" background="#EFF1F3" math="0" shadow="0">
      <root>
        <mxCell id="0" />
        <mxCell id="1" parent="0" />
        <mxCell id="Zxyhw3o_makbFYxT9f12-46" value="" style="html=1;outlineConnect=0;gradientColor=none;gradientDirection=north;strokeWidth=2;shape=mxgraph.networks.cloud;fontColor=#ffffff;dashed=1;dashPattern=1 1;labelBackgroundColor=none;fontSize=18;strokeColor=none;fillColor=#535E80;" parent="1" vertex="1">
          <mxGeometry x="872" y="540" width="117" height="65" as="geometry" />
        </mxCell>
        <mxCell id="Zxyhw3o_makbFYxT9f12-47" value="网络" style="text;html=1;strokeColor=none;fillColor=none;align=center;verticalAlign=middle;whiteSpace=wrap;rounded=0;dashed=1;dashPattern=1 1;fontSize=18;" parent="1" vertex="1">
          <mxGeometry x="880" y="510" width="106" height="24" as="geometry" />
        </mxCell>
        <mxCell id="CQyQY7RHhE3Seuq2_ifr-46" value="" style="rounded=1;whiteSpace=wrap;html=1;dashed=1;strokeWidth=5;fillColor=none;" parent="1" vertex="1">
          <mxGeometry x="1022" y="-108" width="476" height="609" as="geometry" />
        </mxCell>
        <mxCell id="CQyQY7RHhE3Seuq2_ifr-48" value="" style="rounded=1;whiteSpace=wrap;html=1;dashed=1;strokeWidth=5;fillColor=none;" parent="1" vertex="1">
          <mxGeometry x="1022" y="-291" width="474" height="170" as="geometry" />
        </mxCell>
        <mxCell id="CQyQY7RHhE3Seuq2_ifr-49" value="&lt;font style=&quot;font-size: 18px&quot;&gt;socket接口&lt;/font&gt;" style="rounded=1;whiteSpace=wrap;html=1;strokeColor=none;labelBackgroundColor=none;fillColor=#FDD276;" parent="1" vertex="1">
          <mxGeometry x="1047.5" y="-128" width="397.5" height="26" as="geometry" />
        </mxCell>
        <mxCell id="CQyQY7RHhE3Seuq2_ifr-50" value="&lt;span style=&quot;color: rgb(51, 51, 51); font-family: &amp;quot;open sans&amp;quot;, &amp;quot;clear sans&amp;quot;, &amp;quot;helvetica neue&amp;quot;, helvetica, arial, sans-serif;&quot;&gt;&lt;font style=&quot;font-size: 18px&quot;&gt;socket&lt;/font&gt;&lt;/span&gt;" style="rounded=1;whiteSpace=wrap;html=1;strokeColor=none;fillColor=#9AC7BF;labelBackgroundColor=none;" parent="1" vertex="1">
          <mxGeometry x="1088" y="-152" width="86" height="36" as="geometry" />
        </mxCell>
        <mxCell id="CQyQY7RHhE3Seuq2_ifr-51" value="&lt;font style=&quot;font-size: 18px&quot;&gt;tcp数据&lt;/font&gt;" style="rounded=1;whiteSpace=wrap;html=1;strokeColor=none;fillColor=#4A919B;" parent="1" vertex="1">
          <mxGeometry x="1089.5" y="-222" width="83" height="37.25" as="geometry" />
        </mxCell>
        <mxCell id="CQyQY7RHhE3Seuq2_ifr-52" value="&lt;div style=&quot;font-family: &amp;quot;menlo&amp;quot; , &amp;quot;monaco&amp;quot; , &amp;quot;courier new&amp;quot; , monospace ; line-height: 23px&quot;&gt;&lt;span style=&quot;font-size: 18px;&quot;&gt;recv&lt;/span&gt;&lt;/div&gt;" style="rounded=1;whiteSpace=wrap;html=1;strokeColor=none;fillColor=#9AC7BF;labelBackgroundColor=none;" parent="1" vertex="1">
          <mxGeometry x="1088" y="-106" width="86" height="36" as="geometry" />
        </mxCell>
        <mxCell id="CQyQY7RHhE3Seuq2_ifr-53" value="&lt;font style=&quot;font-size: 24px&quot;&gt;用户态&lt;/font&gt;" style="text;html=1;strokeColor=none;fillColor=none;align=center;verticalAlign=middle;whiteSpace=wrap;rounded=0;dashed=1;" parent="1" vertex="1">
          <mxGeometry x="1214.25" y="-273" width="132.5" height="20" as="geometry" />
        </mxCell>
        <mxCell id="CQyQY7RHhE3Seuq2_ifr-54" value="&lt;font style=&quot;font-size: 24px&quot;&gt;内核态&lt;/font&gt;" style="text;html=1;strokeColor=none;align=center;verticalAlign=middle;whiteSpace=wrap;rounded=0;dashed=1;labelBackgroundColor=none;" parent="1" vertex="1">
          <mxGeometry x="1234" y="-82" width="102" height="20" as="geometry" />
        </mxCell>
        <mxCell id="CQyQY7RHhE3Seuq2_ifr-55" value="&lt;span style=&quot;color: rgb(51, 51, 51); font-family: &amp;quot;open sans&amp;quot;, &amp;quot;clear sans&amp;quot;, &amp;quot;helvetica neue&amp;quot;, helvetica, arial, sans-serif; font-size: 18px;&quot;&gt;&lt;font style=&quot;font-size: 18px&quot;&gt;recv_buffer&lt;/font&gt;&lt;/span&gt;" style="rounded=1;whiteSpace=wrap;html=1;strokeColor=none;fontSize=18;fillColor=#F19C99;labelBackgroundColor=none;" parent="1" vertex="1">
          <mxGeometry x="1213" y="-50" width="135" height="52" as="geometry" />
        </mxCell>
        <mxCell id="CQyQY7RHhE3Seuq2_ifr-56" value="&lt;span style=&quot;color: rgb(51 , 51 , 51) ; font-family: &amp;quot;open sans&amp;quot; , &amp;quot;clear sans&amp;quot; , &amp;quot;helvetica neue&amp;quot; , &amp;quot;helvetica&amp;quot; , &amp;quot;arial&amp;quot; , sans-serif&quot;&gt;&lt;font style=&quot;font-size: 16px;&quot;&gt;socket(AF_INET, SOCK_STREAM, 0);&lt;/font&gt;&lt;/span&gt;" style="text;html=1;strokeColor=none;align=center;verticalAlign=middle;whiteSpace=wrap;rounded=0;dashed=1;labelBackgroundColor=none;" parent="1" vertex="1">
          <mxGeometry x="866" y="-172" width="151" height="44" as="geometry" />
        </mxCell>
        <mxCell id="CQyQY7RHhE3Seuq2_ifr-57" value="&lt;span style=&quot;color: rgb(51, 51, 51); font-family: &amp;quot;open sans&amp;quot;, &amp;quot;clear sans&amp;quot;, &amp;quot;helvetica neue&amp;quot;, helvetica, arial, sans-serif; font-size: 18px;&quot;&gt;&lt;font style=&quot;font-size: 18px&quot;&gt;传输层&lt;/font&gt;&lt;/span&gt;" style="rounded=1;whiteSpace=wrap;html=1;strokeColor=none;fontSize=18;fillColor=#9AC7BF;labelBackgroundColor=none;" parent="1" vertex="1">
          <mxGeometry x="1213" y="22" width="135" height="52" as="geometry" />
        </mxCell>
        <mxCell id="CQyQY7RHhE3Seuq2_ifr-58" value="&lt;span style=&quot;color: rgb(51, 51, 51); font-family: &amp;quot;open sans&amp;quot;, &amp;quot;clear sans&amp;quot;, &amp;quot;helvetica neue&amp;quot;, helvetica, arial, sans-serif; font-size: 18px;&quot;&gt;网络层&lt;/span&gt;" style="rounded=1;whiteSpace=wrap;html=1;strokeColor=none;fontSize=18;fillColor=#9AC7BF;labelBackgroundColor=none;" parent="1" vertex="1">
          <mxGeometry x="1213" y="94" width="135" height="52" as="geometry" />
        </mxCell>
        <mxCell id="CQyQY7RHhE3Seuq2_ifr-59" value="&lt;span style=&quot;color: rgb(51, 51, 51); font-family: &amp;quot;open sans&amp;quot;, &amp;quot;clear sans&amp;quot;, &amp;quot;helvetica neue&amp;quot;, helvetica, arial, sans-serif; font-size: 18px;&quot;&gt;数据链路层&lt;/span&gt;" style="rounded=1;whiteSpace=wrap;html=1;strokeColor=none;fontSize=18;fillColor=#9AC7BF;labelBackgroundColor=none;" parent="1" vertex="1">
          <mxGeometry x="1213" y="168" width="135" height="52" as="geometry" />
        </mxCell>
        <mxCell id="CQyQY7RHhE3Seuq2_ifr-60" value="" style="pointerEvents=1;shadow=0;dashed=0;html=1;strokeColor=none;labelPosition=center;verticalLabelPosition=bottom;verticalAlign=top;align=center;outlineConnect=0;shape=mxgraph.veeam2.network_card;fillColor=#535E80;" parent="1" vertex="1">
          <mxGeometry x="1192" y="525" width="169" height="95" as="geometry" />
        </mxCell>
        <mxCell id="CQyQY7RHhE3Seuq2_ifr-61" value="" style="ellipse;whiteSpace=wrap;html=1;aspect=fixed;dashed=1;fontSize=18;strokeWidth=30;fillColor=none;strokeColor=#4A919B;rotation=45;dashPattern=1 1;" parent="1" vertex="1">
          <mxGeometry x="1224.25" y="288" width="110" height="110" as="geometry" />
        </mxCell>
        <mxCell id="CQyQY7RHhE3Seuq2_ifr-62" value="" style="ellipse;whiteSpace=wrap;html=1;aspect=fixed;dashed=1;fontSize=18;strokeWidth=30;fillColor=none;rotation=75;dashPattern=1 1;strokeColor=#535E80;" parent="1" vertex="1">
          <mxGeometry x="1224.25" y="287" width="110" height="110" as="geometry" />
        </mxCell>
        <mxCell id="CQyQY7RHhE3Seuq2_ifr-63" value="Ring Buffer" style="text;html=1;strokeColor=none;fillColor=none;align=center;verticalAlign=middle;whiteSpace=wrap;rounded=0;dashed=1;dashPattern=1 1;fontSize=18;" parent="1" vertex="1">
          <mxGeometry x="1227.5" y="243" width="106" height="24" as="geometry" />
        </mxCell>
        <mxCell id="CQyQY7RHhE3Seuq2_ifr-64" value="网卡" style="text;html=1;strokeColor=none;fillColor=none;align=center;verticalAlign=middle;whiteSpace=wrap;rounded=0;dashed=1;dashPattern=1 1;fontSize=18;" parent="1" vertex="1">
          <mxGeometry x="1242" y="509" width="106" height="24" as="geometry" />
        </mxCell>
        <mxCell id="CQyQY7RHhE3Seuq2_ifr-65" value="" style="shape=flexArrow;endArrow=classic;html=1;strokeColor=none;fillColor=#9AC7BF;labelBackgroundColor=none;" parent="1" edge="1">
          <mxGeometry width="50" height="50" relative="1" as="geometry">
            <mxPoint x="1020" y="-141.92000000000007" as="sourcePoint" />
            <mxPoint x="1070" y="-141.92000000000007" as="targetPoint" />
          </mxGeometry>
        </mxCell>
        <mxCell id="CQyQY7RHhE3Seuq2_ifr-66" value="" style="endArrow=classic;dashed=1;html=1;labelBackgroundColor=none;fontSize=18;fontColor=#9AC7BF;fillColor=#9AC7BF;startArrow=none;startFill=0;strokeWidth=6;strokeColor=#808080;endFill=1;" parent="1" edge="1">
          <mxGeometry width="50" height="50" relative="1" as="geometry">
            <mxPoint x="1173" y="205" as="sourcePoint" />
            <mxPoint x="1173" y="-4" as="targetPoint" />
          </mxGeometry>
        </mxCell>
        <mxCell id="CQyQY7RHhE3Seuq2_ifr-68" value="&lt;font style=&quot;font-size: 18px&quot;&gt;数据&lt;/font&gt;" style="rounded=1;whiteSpace=wrap;html=1;strokeColor=none;fillColor=#4A919B;" parent="1" vertex="1">
          <mxGeometry x="1066" y="95.5" width="87.5" height="38" as="geometry" />
        </mxCell>
        <mxCell id="CQyQY7RHhE3Seuq2_ifr-69" value="&lt;font style=&quot;font-size: 18px&quot;&gt;TCP头&lt;/font&gt;" style="rounded=1;whiteSpace=wrap;html=1;strokeColor=none;fillColor=#6F7DAB;" parent="1" vertex="1">
          <mxGeometry x="986.5" y="95.5" width="79.5" height="38" as="geometry" />
        </mxCell>
        <mxCell id="CQyQY7RHhE3Seuq2_ifr-70" value="&lt;font style=&quot;font-size: 18px&quot;&gt;IP头&lt;/font&gt;" style="rounded=1;whiteSpace=wrap;html=1;strokeColor=none;fillColor=#F19C99;" parent="1" vertex="1">
          <mxGeometry x="907" y="95.5" width="79.5" height="38" as="geometry" />
        </mxCell>
        <mxCell id="CQyQY7RHhE3Seuq2_ifr-71" value="&lt;font style=&quot;font-size: 18px&quot;&gt;数据&lt;/font&gt;" style="rounded=1;whiteSpace=wrap;html=1;strokeColor=none;fillColor=#4A919B;" parent="1" vertex="1">
          <mxGeometry x="1069.5" y="171.5" width="87.5" height="38" as="geometry" />
        </mxCell>
        <mxCell id="CQyQY7RHhE3Seuq2_ifr-72" value="&lt;span style=&quot;font-size: 18px&quot;&gt;TCP头&lt;/span&gt;" style="rounded=1;whiteSpace=wrap;html=1;strokeColor=none;fillColor=#6F7DAB;" parent="1" vertex="1">
          <mxGeometry x="990" y="171.5" width="79.5" height="38" as="geometry" />
        </mxCell>
        <mxCell id="CQyQY7RHhE3Seuq2_ifr-73" value="&lt;font style=&quot;font-size: 18px&quot;&gt;IP头&lt;/font&gt;" style="rounded=1;whiteSpace=wrap;html=1;strokeColor=none;fillColor=#F19C99;" parent="1" vertex="1">
          <mxGeometry x="910.5" y="171.5" width="79.5" height="38" as="geometry" />
        </mxCell>
        <mxCell id="CQyQY7RHhE3Seuq2_ifr-74" value="&lt;font style=&quot;font-size: 18px&quot;&gt;MAC头&lt;/font&gt;" style="rounded=1;whiteSpace=wrap;html=1;strokeColor=none;fillColor=#999999;" parent="1" vertex="1">
          <mxGeometry x="831" y="171.5" width="79.5" height="38" as="geometry" />
        </mxCell>
        <mxCell id="CQyQY7RHhE3Seuq2_ifr-75" value="&lt;font style=&quot;font-size: 18px&quot;&gt;数据&lt;/font&gt;" style="rounded=1;whiteSpace=wrap;html=1;strokeColor=none;fillColor=#4A919B;" parent="1" vertex="1">
          <mxGeometry x="1066" y="26.5" width="87.5" height="38" as="geometry" />
        </mxCell>
        <mxCell id="CQyQY7RHhE3Seuq2_ifr-76" value="&lt;font style=&quot;font-size: 18px&quot;&gt;TCP头&lt;/font&gt;" style="rounded=1;whiteSpace=wrap;html=1;strokeColor=none;fillColor=#6F7DAB;" parent="1" vertex="1">
          <mxGeometry x="986.5" y="26.5" width="79.5" height="38" as="geometry" />
        </mxCell>
        <mxCell id="CQyQY7RHhE3Seuq2_ifr-81" value="" style="endArrow=classic;dashed=1;html=1;labelBackgroundColor=none;fontSize=18;fontColor=#9AC7BF;strokeWidth=6;fillColor=#9AC7BF;endFill=1;strokeColor=#808080;" parent="1" edge="1">
          <mxGeometry width="50" height="50" relative="1" as="geometry">
            <mxPoint x="1023" y="573.5" as="sourcePoint" />
            <mxPoint x="1157" y="571.5000000000002" as="targetPoint" />
          </mxGeometry>
        </mxCell>
        <mxCell id="CQyQY7RHhE3Seuq2_ifr-82" value="&lt;span style=&quot;color: rgb(51, 51, 51); font-family: &amp;quot;open sans&amp;quot;, &amp;quot;clear sans&amp;quot;, &amp;quot;helvetica neue&amp;quot;, helvetica, arial, sans-serif; font-size: 18px;&quot;&gt;DMA&lt;/span&gt;" style="rounded=1;whiteSpace=wrap;html=1;strokeColor=none;fontSize=18;fillColor=#9AC7BF;labelBackgroundColor=none;" parent="1" vertex="1">
          <mxGeometry x="1242" y="428" width="74.75" height="52" as="geometry" />
        </mxCell>
        <mxCell id="CQyQY7RHhE3Seuq2_ifr-84" value="" style="shape=image;verticalLabelPosition=bottom;verticalAlign=top;imageAspect=0;aspect=fixed;image=data:image/svg+xml,PHN2ZyB4bWxuczp4bGluaz0iaHR0cDovL3d3dy53My5vcmcvMTk5OS94bGluayIgeG1sbnM9Imh0dHA6Ly93d3cudzMub3JnLzIwMDAvc3ZnIiBoZWlnaHQ9IjIwMCIgd2lkdGg9IjIwMCIgdmVyc2lvbj0iMS4xIiB2aWV3Qm94PSIwIDAgMTAyNCAxMDI0IiBjbGFzcz0iaWNvbiI+PGRlZnM+PHN0eWxlIHR5cGU9InRleHQvY3NzIj5AZm9udC1mYWNlIHsgZm9udC1mYW1pbHk6IGZlZWRiYWNrLWljb25mb250OyBzcmM6IHVybCgiLy9hdC5hbGljZG4uY29tL3QvZm9udF8xMDMxMTU4X3U2OXc4eWh4ZHUud29mZjI/dD0xNjMwMDMzNzU5OTQ0IikgZm9ybWF0KCJ3b2ZmMiIpLCB1cmwoIi8vYXQuYWxpY2RuLmNvbS90L2ZvbnRfMTAzMTE1OF91Njl3OHloeGR1LndvZmY/dD0xNjMwMDMzNzU5OTQ0IikgZm9ybWF0KCJ3b2ZmIiksIHVybCgiLy9hdC5hbGljZG4uY29tL3QvZm9udF8xMDMxMTU4X3U2OXc4eWh4ZHUudHRmP3Q9MTYzMDAzMzc1OTk0NCIpIGZvcm1hdCgidHJ1ZXR5cGUiKTsgfSYjeGE7PC9zdHlsZT48L2RlZnM+PHBhdGggZmlsbD0iIzRBOTE5QiIgZD0iTTkyOCA0ODBhMzIgMzIgMCAwIDAgMC02NGgtOTZ2LTY0aDk2YTMyIDMyIDAgMCAwIDAtNjRoLTk2di0yOC44QTY3LjIgNjcuMiAwIDAgMCA3NjQuOCAxOTJINzM2Vjk2YTMyIDMyIDAgMCAwLTY0IDB2OTZoLTY0Vjk2YTMyIDMyIDAgMCAwLTY0IDB2OTZoLTY0Vjk2YTMyIDMyIDAgMCAwLTY0IDB2OTZoLTY0Vjk2YTMyIDMyIDAgMCAwLTY0IDB2OTZoLTI4LjhBNjcuMiA2Ny4yIDAgMCAwIDE5MiAyNTkuMlYyODhIOTZhMzIgMzIgMCAwIDAgMCA2NGg5NnY2NEg5NmEzMiAzMiAwIDAgMCAwIDY0aDk2djY0SDk2YTMyIDMyIDAgMCAwIDAgNjRoOTZ2NjRIOTZhMzIgMzIgMCAwIDAgMCA2NGg5NnYyOC44QTY3LjIgNjcuMiAwIDAgMCAyNTkuMiA4MzJIMjg4djk2YTMyIDMyIDAgMCAwIDY0IDB2LTk2aDY0djk2YTMyIDMyIDAgMCAwIDY0IDB2LTk2aDY0djk2YTMyIDMyIDAgMCAwIDY0IDB2LTk2aDY0djk2YTMyIDMyIDAgMCAwIDY0IDB2LTk2aDI4LjhhNjcuMiA2Ny4yIDAgMCAwIDY3LjItNjcuMlY3MzZoOTZhMzIgMzIgMCAwIDAgMC02NGgtOTZ2LTY0aDk2YTMyIDMyIDAgMCAwIDAtNjRoLTk2di02NGg5NnogbS0xOTIgMjI0YTMyIDMyIDAgMCAxLTMyIDMySDMyMGEzMiAzMiAwIDAgMS0zMi0zMlYzMjBhMzIgMzIgMCAwIDEgMzItMzJoMzg0YTMyIDMyIDAgMCAxIDMyIDMydjM4NHoiLz48cGF0aCBmaWxsPSIjNEE5MTlCIiBkPSJNMzg0IDM4NGwyNTYgMCAwIDI1Ni0yNTYgMCAwLTI1NloiLz48L3N2Zz4=;rounded=0;fontColor=#333333;strokeColor=#3399FF;fillColor=#4A919B;" parent="1" vertex="1">
          <mxGeometry x="1055" y="356" width="87" height="87" as="geometry" />
        </mxCell>
        <mxCell id="CQyQY7RHhE3Seuq2_ifr-85" value="" style="curved=1;endArrow=classic;html=1;rounded=0;dashed=1;fontColor=#333333;strokeWidth=3;strokeColor=#808080;" parent="1" edge="1">
          <mxGeometry width="50" height="50" relative="1" as="geometry">
            <mxPoint x="1187" y="552" as="sourcePoint" />
            <mxPoint x="1145" y="415" as="targetPoint" />
            <Array as="points">
              <mxPoint x="1137" y="493" />
              <mxPoint x="1187" y="443" />
            </Array>
          </mxGeometry>
        </mxCell>
        <mxCell id="CQyQY7RHhE3Seuq2_ifr-86" value="&lt;font color=&quot;#808080&quot; style=&quot;font-size: 19px;&quot;&gt;2.触发硬中断通知CPU&lt;/font&gt;" style="text;html=1;strokeColor=none;fillColor=none;align=center;verticalAlign=middle;whiteSpace=wrap;rounded=0;fontColor=#333333;" parent="1" vertex="1">
          <mxGeometry x="1047.5" y="446" width="116.25" height="42" as="geometry" />
        </mxCell>
        <mxCell id="CQyQY7RHhE3Seuq2_ifr-87" value="&lt;font face=&quot;open sans, clear sans, helvetica neue, helvetica, arial, sans-serif&quot; color=&quot;#333333&quot;&gt;ksoftirqd&lt;/font&gt;" style="rounded=1;whiteSpace=wrap;html=1;strokeColor=none;fontSize=18;fillColor=#9AC7BF;labelBackgroundColor=none;" parent="1" vertex="1">
          <mxGeometry x="1069.5" y="250" width="81.75" height="52" as="geometry" />
        </mxCell>
        <mxCell id="CQyQY7RHhE3Seuq2_ifr-89" value="" style="endArrow=classic;html=1;rounded=0;dashed=1;fontColor=#333333;strokeColor=#808080;strokeWidth=3;" parent="1" edge="1">
          <mxGeometry width="50" height="50" relative="1" as="geometry">
            <mxPoint x="1101" y="351" as="sourcePoint" />
            <mxPoint x="1107" y="302" as="targetPoint" />
          </mxGeometry>
        </mxCell>
        <mxCell id="CQyQY7RHhE3Seuq2_ifr-92" value="" style="curved=1;endArrow=classic;html=1;rounded=0;dashed=1;fontColor=#333333;strokeColor=#808080;strokeWidth=3;" parent="1" edge="1">
          <mxGeometry width="50" height="50" relative="1" as="geometry">
            <mxPoint x="1157" y="281" as="sourcePoint" />
            <mxPoint x="1226.75" y="223" as="targetPoint" />
            <Array as="points">
              <mxPoint x="1201.75" y="292" />
              <mxPoint x="1249" y="288" />
              <mxPoint x="1182" y="235" />
            </Array>
          </mxGeometry>
        </mxCell>
        <mxCell id="CQyQY7RHhE3Seuq2_ifr-93" value="" style="curved=1;endArrow=classic;html=1;rounded=0;dashed=1;fontColor=#333333;strokeWidth=3;strokeColor=#808080;" parent="1" edge="1">
          <mxGeometry width="50" height="50" relative="1" as="geometry">
            <mxPoint x="1356" y="534.0000000000002" as="sourcePoint" />
            <mxPoint x="1314" y="397" as="targetPoint" />
            <Array as="points">
              <mxPoint x="1306" y="475" />
              <mxPoint x="1356" y="425" />
            </Array>
          </mxGeometry>
        </mxCell>
        <mxCell id="CQyQY7RHhE3Seuq2_ifr-94" value="&lt;font color=&quot;#808080&quot; style=&quot;font-size: 19px;&quot;&gt;1.DMA从网卡收包到RingBuffer&lt;/font&gt;" style="text;html=1;strokeColor=none;fillColor=none;align=center;verticalAlign=middle;whiteSpace=wrap;rounded=0;fontColor=#333333;" parent="1" vertex="1">
          <mxGeometry x="1336" y="412" width="152" height="61" as="geometry" />
        </mxCell>
        <mxCell id="CQyQY7RHhE3Seuq2_ifr-95" value="&lt;font color=&quot;#808080&quot; style=&quot;font-size: 19px;&quot;&gt;4.收包&lt;/font&gt;" style="text;html=1;strokeColor=none;fillColor=none;align=center;verticalAlign=middle;whiteSpace=wrap;rounded=0;fontColor=#333333;" parent="1" vertex="1">
          <mxGeometry x="1164.25" y="255" width="60" height="30" as="geometry" />
        </mxCell>
        <mxCell id="CQyQY7RHhE3Seuq2_ifr-96" value="&lt;font color=&quot;#808080&quot; style=&quot;font-size: 19px;&quot;&gt;&lt;font style=&quot;font-size: 19px;&quot;&gt;3&lt;/font&gt;. 软中断&lt;/font&gt;" style="text;html=1;strokeColor=none;fillColor=none;align=center;verticalAlign=middle;whiteSpace=wrap;rounded=0;fontSize=12;fontColor=#333333;" parent="1" vertex="1">
          <mxGeometry x="998" y="310" width="96" height="30" as="geometry" />
        </mxCell>
        <mxCell id="0KVfuc1yAWCytziAbhZV-1" value="" style="shape=image;verticalLabelPosition=bottom;verticalAlign=top;imageAspect=0;aspect=fixed;image=data:image/svg+xml,PHN2ZyB4bWxuczp4bGluaz0iaHR0cDovL3d3dy53My5vcmcvMTk5OS94bGluayIgeG1sbnM9Imh0dHA6Ly93d3cudzMub3JnLzIwMDAvc3ZnIiBoZWlnaHQ9IjIwMCIgd2lkdGg9IjIwMCIgdmVyc2lvbj0iMS4xIiB2aWV3Qm94PSIwIDAgMTAyNCAxMDI0IiBjbGFzcz0iaWNvbiI+PGRlZnM+PHN0eWxlIHR5cGU9InRleHQvY3NzIj5AZm9udC1mYWNlIHsgZm9udC1mYW1pbHk6IGZlZWRiYWNrLWljb25mb250OyBzcmM6IHVybCgiLy9hdC5hbGljZG4uY29tL3QvZm9udF8xMDMxMTU4X3U2OXc4eWh4ZHUud29mZjI/dD0xNjMwMDMzNzU5OTQ0IikgZm9ybWF0KCJ3b2ZmMiIpLCB1cmwoIi8vYXQuYWxpY2RuLmNvbS90L2ZvbnRfMTAzMTE1OF91Njl3OHloeGR1LndvZmY/dD0xNjMwMDMzNzU5OTQ0IikgZm9ybWF0KCJ3b2ZmIiksIHVybCgiLy9hdC5hbGljZG4uY29tL3QvZm9udF8xMDMxMTU4X3U2OXc4eWh4ZHUudHRmP3Q9MTYzMDAzMzc1OTk0NCIpIGZvcm1hdCgidHJ1ZXR5cGUiKTsgfSYjeGE7PC9zdHlsZT48L2RlZnM+PHBhdGggZmlsbD0iIzRBOTE5QiIgZD0iTTgyOS45NTIgMjcxLjM2aC0xMjYuOTc2di01MS4yYTc2LjI4OCA3Ni4yODggMCAwIDAtNzUuNzc2LTc2LjI4OGgtMjU2YTc2LjI4OCA3Ni4yODggMCAwIDAtNzUuNzc2IDc2Ljh2NTEuMkgxNjguNDQ4YTI1LjYgMjUuNiAwIDAgMCAwIDUxLjJoNjYxLjUwNGEyNS42IDI1LjYgMCAwIDAgMC01MS43MTJ6IG0tMTc4LjE3NiAwaC0zMDcuMnYtNTEuMmEyNi4xMTIgMjYuMTEyIDAgMCAxIDI1LjYtMjUuNmgyNTZhMjQuNTc2IDI0LjU3NiAwIDAgMSAyNC41NzYgMjUuNnpNNDQ4LjUxMiA2NzcuMzc2VjM5OC4zMzZhMjUuNiAyNS42IDAgMCAwLTUxLjIgMHYyNzkuMDRhMjUuNiAyNS42IDAgMCAwIDUxLjIgMHpNNjAxLjA4OCA2NzcuMzc2VjM5OC4zMzZhMjUuNiAyNS42IDAgMCAwLTUxLjIgMHYyNzkuMDRhMjUuNiAyNS42IDAgMCAwIDUxLjIgMHoiLz48cGF0aCBmaWxsPSIjNEE5MTlCIiBkPSJNNzM1Ljc0NCAzNDYuNjI0YTI1LjYgMjUuNiAwIDAgMC0yNS42IDI1LjZ2MzgxLjQ0YTEwMi40IDEwMi40IDAgMCAxLTEwMi40IDEwMi40SDM5MC42NTZhMTAyLjQgMTAyLjQgMCAwIDEtMTAyLjQtMTAyLjRWMzcyLjIyNGEyNS42IDI1LjYgMCAwIDAtNTEuMiAwdjM4MS40NGExNTMuNiAxNTMuNiAwIDAgMCAxNTMuNiAxNTMuNmgyMTcuNmExNTMuNiAxNTMuNiAwIDAgMCAxNTMuNi0xNTMuNlYzNzIuMjI0YTI1LjYgMjUuNiAwIDAgMC0yNi4xMTItMjUuNnoiLz48L3N2Zz4=;fillColor=#F19C99;" parent="1" vertex="1">
          <mxGeometry x="1397" y="14" width="111" height="111" as="geometry" />
        </mxCell>
        <mxCell id="0KVfuc1yAWCytziAbhZV-2" value="" style="curved=1;endArrow=classic;html=1;rounded=0;strokeWidth=4;dashed=1;strokeColor=#F19C99;" parent="1" edge="1">
          <mxGeometry width="50" height="50" relative="1" as="geometry">
            <mxPoint x="1364" y="-19" as="sourcePoint" />
            <mxPoint x="1414" y="31" as="targetPoint" />
            <Array as="points">
              <mxPoint x="1414" y="-19" />
              <mxPoint x="1364" y="31" />
            </Array>
          </mxGeometry>
        </mxCell>
        <mxCell id="0KVfuc1yAWCytziAbhZV-3" value="&lt;span style=&quot;color: rgb(51, 51, 51); font-family: &amp;quot;open sans&amp;quot;, &amp;quot;clear sans&amp;quot;, &amp;quot;helvetica neue&amp;quot;, helvetica, arial, sans-serif; font-size: 18px;&quot;&gt;data&lt;/span&gt;" style="rounded=1;whiteSpace=wrap;html=1;strokeColor=none;fontSize=18;fillColor=#F19C99;labelBackgroundColor=none;" parent="1" vertex="1">
          <mxGeometry x="1405" y="-52" width="49.75" height="35" as="geometry" />
        </mxCell>
      </root>
    </mxGraphModel>
  </diagram>
</mxfile>
